<?xml version="1.0" encoding="UTF-8"?>
<!DOCTYPE svg PUBLIC "-//W3C//DTD SVG 1.1//EN" "http://www.w3.org/Graphics/SVG/1.1/DTD/svg11.dtd">
<svg version="1.1" id="Layer_1" xmlns="http://www.w3.org/2000/svg" xmlns:xlink="http://www.w3.org/1999/xlink" x="0px" y="0px" width="720px" height="200px" viewBox="0 0 720 200" enable-background="new 0 0 720 200" xml:space="preserve">
<path fill="#CCCCCC" d="M718,28v22h2V26l0,0H0v24h2V28H718"/>
<path fill="#CCCCCC" d="M265,151 M265,149v22H104v-22h-2v24h165v-24l0,0H265z"/>
<path fill="#CCCCCC" d="M707,151 M707,149v22H531v-22h-2v24h180v-24l0,0H707z"/>
<g>
	<path fill="#333333" d="M24.568,68.688V57.456H38.2v11.232H24.568z M38.2,76.368V126H24.568V76.368H38.2z"/>
	<path fill="#333333" d="M43.768,85.488v-9.12h8.16v-3.84c0-4.416,1.375-8.031,4.128-10.848c2.751-2.816,6.912-4.224,12.48-4.224   c1.215,0,2.432,0.048,3.648,0.144c1.215,0.096,2.4,0.177,3.552,0.24v10.176c-1.6-0.192-3.264-0.288-4.992-0.288   c-1.857,0-3.185,0.432-3.984,1.296c-0.801,0.864-1.2,2.321-1.2,4.368v2.976h9.408v9.12H65.56V126H51.928V85.488H43.768z"/>
	<path fill="#333333" d="M134.871,76.368v9.12h-9.984v24.576c0,2.304,0.384,3.84,1.152,4.608c0.768,0.768,2.304,1.152,4.608,1.152   c0.768,0,1.503-0.031,2.208-0.096c0.704-0.063,1.375-0.16,2.016-0.289V126c-1.152,0.191-2.433,0.319-3.84,0.384   c-1.408,0.063-2.784,0.097-4.128,0.097c-2.112,0-4.113-0.145-6-0.433c-1.889-0.288-3.552-0.847-4.992-1.68   c-1.44-0.831-2.577-2.017-3.408-3.552c-0.833-1.537-1.248-3.553-1.248-6.049v-29.28h-8.256v-9.12h8.256v-14.88h13.632v14.88   H134.871z"/>
	<path fill="#333333" d="M155.03,57.456V83.28h0.288c1.728-2.88,3.936-4.975,6.624-6.288c2.688-1.311,5.312-1.968,7.872-1.968   c3.648,0,6.639,0.497,8.976,1.488c2.335,0.993,4.176,2.368,5.52,4.128c1.344,1.761,2.287,3.904,2.832,6.432   c0.543,2.529,0.816,5.328,0.816,8.4V126h-13.632V97.968c0-4.095-0.64-7.152-1.92-9.168c-1.281-2.016-3.552-3.024-6.816-3.024   c-3.712,0-6.4,1.104-8.064,3.312c-1.665,2.208-2.496,5.841-2.496,10.896V126h-13.632V57.456H155.03z"/>
	<path fill="#333333" d="M198.708,68.688V57.456h13.632v11.232H198.708z M212.341,76.368V126h-13.632V76.368H212.341z"/>
	<path fill="#333333" d="M234.564,113.664c0.608,1.057,1.392,1.92,2.352,2.592s2.064,1.168,3.312,1.488s2.544,0.48,3.888,0.48   c0.96,0,1.968-0.111,3.024-0.336s2.016-0.576,2.88-1.057c0.864-0.48,1.584-1.119,2.16-1.92c0.576-0.8,0.864-1.808,0.864-3.023   c0-2.048-1.361-3.584-4.08-4.609c-2.721-1.023-6.513-2.047-11.376-3.072c-1.985-0.447-3.921-0.975-5.808-1.584   c-1.889-0.607-3.568-1.407-5.04-2.4c-1.473-0.992-2.657-2.24-3.552-3.744c-0.897-1.503-1.344-3.343-1.344-5.52   c0-3.199,0.624-5.823,1.872-7.872c1.248-2.047,2.895-3.663,4.944-4.848c2.047-1.184,4.352-2.016,6.912-2.496   c2.559-0.48,5.184-0.72,7.872-0.72s5.295,0.256,7.824,0.768c2.528,0.513,4.784,1.377,6.768,2.592   c1.983,1.217,3.631,2.832,4.944,4.848c1.311,2.016,2.096,4.56,2.352,7.632h-12.96c-0.192-2.623-1.185-4.399-2.976-5.328   c-1.792-0.927-3.904-1.392-6.336-1.392c-0.768,0-1.601,0.048-2.496,0.144c-0.897,0.096-1.713,0.304-2.448,0.624   c-0.736,0.321-1.36,0.784-1.872,1.392c-0.513,0.609-0.768,1.425-0.768,2.448c0,1.216,0.447,2.208,1.344,2.976   c0.896,0.768,2.064,1.392,3.504,1.872s3.087,0.912,4.944,1.296c1.855,0.384,3.744,0.801,5.664,1.248   c1.983,0.448,3.919,0.993,5.808,1.632c1.887,0.641,3.567,1.488,5.04,2.544c1.471,1.056,2.655,2.369,3.552,3.936   c0.896,1.569,1.344,3.504,1.344,5.808c0,3.264-0.657,6-1.968,8.208c-1.312,2.209-3.024,3.984-5.136,5.328   c-2.112,1.344-4.528,2.289-7.248,2.832c-2.721,0.543-5.488,0.816-8.304,0.816c-2.88,0-5.697-0.288-8.448-0.864   c-2.752-0.575-5.201-1.536-7.344-2.88c-2.145-1.344-3.904-3.12-5.28-5.328c-1.377-2.208-2.128-4.975-2.256-8.304h12.96   C233.652,111.346,233.955,112.607,234.564,113.664z"/>
	<path fill="#333333" d="M328.595,76.368v9.12h-9.984v24.576c0,2.304,0.384,3.84,1.152,4.608c0.768,0.768,2.304,1.152,4.608,1.152   c0.768,0,1.503-0.031,2.208-0.096c0.704-0.063,1.375-0.16,2.016-0.289V126c-1.152,0.191-2.433,0.319-3.84,0.384   c-1.408,0.063-2.784,0.097-4.128,0.097c-2.112,0-4.113-0.145-6-0.433c-1.889-0.288-3.552-0.847-4.992-1.68   c-1.44-0.831-2.577-2.017-3.408-3.552c-0.833-1.537-1.248-3.553-1.248-6.049v-29.28h-8.256v-9.12h8.256v-14.88h13.632v14.88   H328.595z"/>
	<path fill="#333333" d="M348.754,57.456V83.28h0.288c1.728-2.88,3.937-4.975,6.624-6.288c2.688-1.311,5.311-1.968,7.871-1.968   c3.648,0,6.641,0.497,8.977,1.488c2.336,0.993,4.176,2.368,5.52,4.128c1.346,1.761,2.289,3.904,2.832,6.432   c0.543,2.529,0.816,5.328,0.816,8.4V126h-13.631V97.968c0-4.095-0.641-7.152-1.92-9.168c-1.281-2.016-3.553-3.024-6.816-3.024   c-3.713,0-6.4,1.104-8.064,3.312c-1.665,2.208-2.496,5.841-2.496,10.896V126h-13.632V57.456H348.754z"/>
	<path fill="#333333" d="M406.642,114.096c2.047,1.984,4.991,2.977,8.832,2.977c2.751,0,5.119-0.688,7.104-2.064   c1.983-1.375,3.199-2.832,3.648-4.368h12c-1.92,5.952-4.865,10.209-8.832,12.768c-3.97,2.561-8.77,3.84-14.4,3.84   c-3.904,0-7.425-0.624-10.56-1.872c-3.137-1.248-5.793-3.024-7.969-5.328s-3.856-5.055-5.04-8.256   c-1.185-3.2-1.775-6.72-1.775-10.56c0-3.711,0.607-7.167,1.824-10.368c1.215-3.199,2.942-5.967,5.184-8.304   c2.239-2.335,4.911-4.176,8.016-5.52c3.104-1.344,6.543-2.016,10.32-2.016c4.224,0,7.903,0.816,11.04,2.448   c3.135,1.632,5.712,3.825,7.729,6.576c2.016,2.752,3.471,5.889,4.367,9.408c0.896,3.521,1.215,7.2,0.96,11.04h-35.808   C403.474,108.912,404.592,112.113,406.642,114.096z M422.049,87.984c-1.632-1.791-4.112-2.688-7.439-2.688   c-2.177,0-3.984,0.369-5.424,1.104c-1.44,0.737-2.593,1.648-3.456,2.736c-0.864,1.089-1.474,2.241-1.824,3.456   c-0.353,1.217-0.562,2.304-0.624,3.264h22.176C424.816,92.4,423.682,89.776,422.049,87.984z"/>
	<path fill="#333333" d="M460.112,76.368v6.912h0.288c1.729-2.88,3.968-4.975,6.721-6.288c2.751-1.311,5.567-1.968,8.447-1.968   c3.648,0,6.64,0.497,8.977,1.488c2.335,0.993,4.176,2.368,5.52,4.128c1.345,1.761,2.288,3.904,2.832,6.432   c0.543,2.529,0.816,5.328,0.816,8.4V126h-13.632V97.968c0-4.095-0.641-7.152-1.92-9.168c-1.281-2.016-3.553-3.024-6.816-3.024   c-3.713,0-6.4,1.104-8.064,3.312s-2.495,5.841-2.495,10.896V126h-13.633V76.368H460.112z"/>
	<path fill="#333333" d="M558.032,76.368v9.12h-9.984v24.576c0,2.304,0.384,3.84,1.152,4.608c0.768,0.768,2.304,1.152,4.607,1.152   c0.769,0,1.503-0.031,2.208-0.096c0.704-0.063,1.376-0.16,2.017-0.289V126c-1.152,0.191-2.434,0.319-3.84,0.384   c-1.409,0.063-2.784,0.097-4.128,0.097c-2.112,0-4.113-0.145-6-0.433c-1.889-0.288-3.553-0.847-4.992-1.68   c-1.44-0.831-2.577-2.017-3.408-3.552c-0.833-1.537-1.248-3.553-1.248-6.049v-29.28h-8.256v-9.12h8.256v-14.88h13.632v14.88   H558.032z"/>
	<path fill="#333333" d="M578.191,57.456V83.28h0.287c1.729-2.88,3.937-4.975,6.624-6.288c2.688-1.311,5.312-1.968,7.872-1.968   c3.648,0,6.64,0.497,8.977,1.488c2.335,0.993,4.176,2.368,5.52,4.128c1.345,1.761,2.288,3.904,2.832,6.432   c0.543,2.529,0.816,5.328,0.816,8.4V126h-13.632V97.968c0-4.095-0.641-7.152-1.92-9.168c-1.281-2.016-3.553-3.024-6.816-3.024   c-3.713,0-6.4,1.104-8.064,3.312s-2.495,5.841-2.495,10.896V126h-13.633V57.456H578.191z"/>
	<path fill="#333333" d="M623.31,83.664c1.407-2.112,3.199-3.807,5.376-5.088c2.175-1.28,4.623-2.192,7.344-2.736   c2.72-0.543,5.456-0.816,8.208-0.816c2.496,0,5.024,0.177,7.584,0.528c2.56,0.353,4.896,1.041,7.009,2.064   c2.111,1.024,3.84,2.448,5.184,4.272c1.344,1.824,2.016,4.24,2.016,7.248v25.824c0,2.241,0.128,4.385,0.385,6.433   c0.255,2.049,0.703,3.584,1.344,4.607h-13.824c-0.256-0.768-0.465-1.551-0.624-2.352c-0.16-0.8-0.272-1.615-0.336-2.448   c-2.177,2.241-4.737,3.808-7.68,4.704c-2.944,0.895-5.952,1.344-9.024,1.344c-2.368,0-4.576-0.288-6.624-0.864   c-2.049-0.575-3.84-1.472-5.376-2.688c-1.536-1.215-2.735-2.75-3.6-4.607c-0.864-1.855-1.296-4.063-1.296-6.624   c0-2.815,0.495-5.136,1.487-6.96c0.992-1.824,2.271-3.279,3.841-4.368c1.567-1.088,3.359-1.904,5.376-2.448   c2.016-0.543,4.047-0.975,6.096-1.296c2.048-0.32,4.063-0.576,6.048-0.768c1.983-0.192,3.744-0.48,5.28-0.864   c1.536-0.384,2.751-0.943,3.647-1.68c0.896-0.735,1.312-1.808,1.248-3.216c0-1.471-0.239-2.64-0.72-3.504   c-0.479-0.864-1.12-1.536-1.92-2.016c-0.801-0.48-1.729-0.8-2.784-0.96c-1.056-0.159-2.193-0.24-3.408-0.24   c-2.688,0-4.8,0.576-6.336,1.728s-2.433,3.072-2.688,5.76H620.91C621.102,88.433,621.901,85.776,623.31,83.664z M650.237,102.912   c-0.863,0.288-1.792,0.528-2.783,0.72c-0.993,0.192-2.033,0.353-3.12,0.48c-1.089,0.129-2.177,0.288-3.265,0.48   c-1.024,0.192-2.032,0.449-3.023,0.768c-0.993,0.321-1.857,0.753-2.592,1.296c-0.737,0.545-1.329,1.233-1.776,2.064   c-0.448,0.833-0.672,1.888-0.672,3.168c0,1.216,0.224,2.24,0.672,3.071c0.447,0.833,1.056,1.488,1.824,1.968   c0.768,0.48,1.663,0.816,2.688,1.008c1.023,0.192,2.079,0.289,3.168,0.289c2.688,0,4.768-0.447,6.24-1.345   c1.472-0.896,2.56-1.968,3.264-3.216s1.136-2.512,1.297-3.792c0.158-1.28,0.239-2.304,0.239-3.072v-5.088   C651.821,102.225,651.102,102.624,650.237,102.912z"/>
	<path fill="#333333" d="M703.853,76.368v9.12h-9.984v24.576c0,2.304,0.384,3.84,1.152,4.608c0.768,0.768,2.304,1.152,4.607,1.152   c0.769,0,1.503-0.031,2.208-0.096c0.704-0.063,1.376-0.16,2.017-0.289V126c-1.152,0.191-2.434,0.319-3.84,0.384   c-1.409,0.063-2.784,0.097-4.128,0.097c-2.112,0-4.113-0.145-6-0.433c-1.889-0.288-3.553-0.847-4.992-1.68   c-1.44-0.831-2.577-2.017-3.408-3.552c-0.833-1.537-1.248-3.553-1.248-6.049v-29.28h-8.256v-9.12h8.256v-14.88h13.632v14.88   H703.853z"/>
</g>
<g>
	<path fill="#999999" d="M341.624,4.576c1.088,0,1.938,0.267,2.552,0.8c0.613,0.534,0.92,1.264,0.92,2.192   c0,0.694-0.158,1.302-0.472,1.824c-0.315,0.522-0.819,0.88-1.512,1.072v0.032c0.331,0.064,0.6,0.171,0.808,0.32   c0.208,0.149,0.374,0.328,0.496,0.536s0.213,0.44,0.272,0.696c0.059,0.256,0.104,0.523,0.136,0.8   c0.021,0.277,0.037,0.56,0.048,0.848c0.01,0.288,0.037,0.571,0.08,0.848c0.042,0.277,0.104,0.542,0.184,0.792   c0.08,0.251,0.2,0.472,0.36,0.664H343.8c-0.106-0.117-0.179-0.277-0.216-0.48c-0.038-0.203-0.062-0.429-0.072-0.68   c-0.011-0.25-0.021-0.52-0.032-0.808c-0.011-0.288-0.043-0.571-0.096-0.848c-0.042-0.277-0.096-0.542-0.16-0.792   s-0.166-0.469-0.304-0.656c-0.139-0.187-0.32-0.336-0.544-0.448c-0.224-0.112-0.523-0.168-0.896-0.168h-3.712V16h-1.52V4.576   H341.624z M341.944,9.76c0.32-0.053,0.6-0.157,0.84-0.312c0.24-0.155,0.432-0.363,0.576-0.624s0.216-0.6,0.216-1.016   c0-0.576-0.16-1.045-0.48-1.408c-0.32-0.362-0.838-0.544-1.552-0.544h-3.776V9.84h3.168C341.288,9.84,341.624,9.813,341.944,9.76z"/>
	<path fill="#999999" d="M352.84,15.472c-0.619,0.469-1.397,0.704-2.336,0.704c-0.662,0-1.235-0.106-1.72-0.32   c-0.486-0.213-0.894-0.512-1.224-0.896c-0.331-0.384-0.579-0.842-0.744-1.376c-0.166-0.533-0.259-1.114-0.28-1.744   c0-0.629,0.096-1.205,0.288-1.728c0.192-0.522,0.461-0.976,0.808-1.36c0.347-0.384,0.757-0.683,1.232-0.896s0.995-0.32,1.56-0.32   c0.736,0,1.347,0.152,1.832,0.456c0.485,0.304,0.875,0.69,1.168,1.16c0.293,0.47,0.496,0.981,0.608,1.536   c0.112,0.555,0.158,1.083,0.136,1.584h-6.192c-0.011,0.363,0.032,0.707,0.128,1.032c0.096,0.325,0.25,0.613,0.464,0.864   c0.213,0.251,0.485,0.451,0.816,0.6s0.72,0.224,1.168,0.224c0.576,0,1.048-0.133,1.416-0.4c0.368-0.266,0.611-0.672,0.728-1.216   h1.344C353.858,14.304,353.458,15.003,352.84,15.472z M352.512,10.16c-0.123-0.288-0.288-0.536-0.496-0.744   s-0.454-0.373-0.736-0.496c-0.283-0.123-0.595-0.184-0.936-0.184c-0.352,0-0.669,0.062-0.952,0.184   c-0.283,0.123-0.525,0.291-0.728,0.504c-0.203,0.214-0.363,0.462-0.48,0.744c-0.118,0.283-0.187,0.584-0.208,0.904h4.752   C352.707,10.752,352.634,10.448,352.512,10.16z"/>
	<path fill="#999999" d="M360.52,9.168c-0.341-0.288-0.8-0.432-1.376-0.432c-0.491,0-0.901,0.091-1.232,0.272   c-0.331,0.182-0.595,0.422-0.792,0.72c-0.197,0.299-0.338,0.643-0.424,1.032c-0.085,0.39-0.128,0.792-0.128,1.208   c0,0.384,0.045,0.758,0.136,1.12c0.091,0.363,0.232,0.686,0.424,0.968c0.192,0.283,0.442,0.509,0.752,0.68   c0.309,0.171,0.677,0.256,1.104,0.256c0.672,0,1.197-0.176,1.576-0.528c0.379-0.352,0.61-0.848,0.696-1.488h1.393   c-0.15,1.024-0.531,1.813-1.145,2.368c-0.614,0.555-1.448,0.832-2.504,0.832c-0.63,0-1.187-0.101-1.672-0.304   s-0.891-0.491-1.216-0.864c-0.326-0.373-0.571-0.818-0.736-1.336c-0.166-0.517-0.248-1.085-0.248-1.704   c0-0.618,0.08-1.197,0.24-1.736s0.402-1.008,0.728-1.408c0.325-0.4,0.733-0.715,1.224-0.944c0.49-0.229,1.061-0.344,1.712-0.344   c0.469,0,0.909,0.056,1.32,0.168c0.411,0.112,0.773,0.285,1.088,0.52s0.574,0.531,0.776,0.888c0.202,0.358,0.331,0.782,0.384,1.272   h-1.408C361.085,9.861,360.861,9.456,360.52,9.168z"/>
	<path fill="#999999" d="M364.248,6.24V4.576h1.359V6.24H364.248z M365.607,7.728V16h-1.359V7.728H365.607z"/>
	<path fill="#999999" d="M369.127,7.728v1.12h0.032c0.224-0.458,0.576-0.792,1.056-1c0.48-0.208,1.008-0.312,1.584-0.312   c0.641,0,1.197,0.117,1.672,0.352c0.475,0.234,0.869,0.552,1.185,0.952c0.314,0.4,0.552,0.862,0.712,1.384s0.24,1.077,0.24,1.664   c0,0.586-0.078,1.141-0.232,1.664c-0.154,0.523-0.389,0.979-0.703,1.368c-0.315,0.39-0.71,0.696-1.185,0.92   c-0.475,0.224-1.026,0.336-1.655,0.336c-0.203,0-0.43-0.021-0.681-0.064s-0.499-0.112-0.744-0.208   c-0.245-0.096-0.478-0.226-0.696-0.392s-0.402-0.371-0.552-0.616h-0.032v4.256h-1.359V7.728H369.127z M374.016,10.664   c-0.102-0.368-0.256-0.696-0.465-0.984c-0.207-0.288-0.475-0.518-0.799-0.688c-0.326-0.171-0.707-0.256-1.145-0.256   c-0.459,0-0.848,0.091-1.168,0.272c-0.32,0.182-0.582,0.419-0.784,0.712s-0.35,0.626-0.44,1c-0.09,0.373-0.136,0.752-0.136,1.136   c0,0.406,0.048,0.797,0.144,1.176c0.097,0.378,0.248,0.712,0.457,1c0.207,0.288,0.477,0.52,0.808,0.696   c0.331,0.176,0.73,0.264,1.2,0.264c0.469,0,0.861-0.091,1.176-0.272c0.314-0.182,0.568-0.421,0.76-0.72   c0.192-0.298,0.33-0.64,0.416-1.024c0.086-0.384,0.129-0.779,0.129-1.184C374.168,11.408,374.117,11.032,374.016,10.664z"/>
	<path fill="#999999" d="M383.062,15.472c-0.617,0.469-1.396,0.704-2.336,0.704c-0.66,0-1.234-0.106-1.719-0.32   c-0.486-0.213-0.895-0.512-1.225-0.896c-0.33-0.384-0.578-0.842-0.744-1.376c-0.166-0.533-0.258-1.114-0.279-1.744   c0-0.629,0.096-1.205,0.287-1.728c0.191-0.522,0.461-0.976,0.809-1.36c0.346-0.384,0.758-0.683,1.232-0.896s0.994-0.32,1.559-0.32   c0.736,0,1.348,0.152,1.832,0.456c0.486,0.304,0.875,0.69,1.168,1.16c0.293,0.47,0.496,0.981,0.609,1.536   c0.111,0.555,0.156,1.083,0.135,1.584h-6.191c-0.012,0.363,0.031,0.707,0.127,1.032c0.098,0.325,0.252,0.613,0.465,0.864   c0.213,0.251,0.484,0.451,0.816,0.6c0.33,0.149,0.719,0.224,1.168,0.224c0.576,0,1.047-0.133,1.416-0.4   c0.367-0.266,0.609-0.672,0.729-1.216h1.344C384.082,14.304,383.682,15.003,383.062,15.472z M382.734,10.16   c-0.121-0.288-0.287-0.536-0.496-0.744c-0.207-0.208-0.453-0.373-0.734-0.496c-0.283-0.123-0.596-0.184-0.938-0.184   c-0.352,0-0.668,0.062-0.951,0.184c-0.283,0.123-0.525,0.291-0.729,0.504c-0.203,0.214-0.363,0.462-0.48,0.744   c-0.117,0.283-0.186,0.584-0.207,0.904h4.752C382.93,10.752,382.857,10.448,382.734,10.16z"/>
</g>
<g>
	<path fill="#999999" d="M160.093,183.855v-1.279h9.136v1.279h-3.808V194h-1.52v-10.145H160.093z"/>
	<path fill="#999999" d="M170.028,185.729v1.744h0.032c0.331-0.673,0.736-1.168,1.216-1.488s1.088-0.47,1.824-0.448v1.44   c-0.544,0-1.008,0.074-1.392,0.224c-0.384,0.149-0.693,0.368-0.928,0.655c-0.234,0.289-0.405,0.639-0.512,1.049   c-0.107,0.41-0.16,0.883-0.16,1.416V194h-1.36v-8.271H170.028z"/>
	<path fill="#999999" d="M174.204,184.24v-1.664h1.36v1.664H174.204z M175.564,185.729V194h-1.36v-8.271H175.564z"/>
	<path fill="#999999" d="M183.884,196.336c-0.619,0.672-1.589,1.008-2.912,1.008c-0.384,0-0.776-0.043-1.176-0.128   s-0.763-0.224-1.088-0.416c-0.326-0.192-0.595-0.442-0.808-0.752s-0.331-0.688-0.352-1.136h1.36   c0.011,0.245,0.088,0.453,0.232,0.624c0.144,0.171,0.32,0.31,0.528,0.416s0.435,0.185,0.68,0.231   c0.246,0.049,0.48,0.072,0.704,0.072c0.448,0,0.827-0.077,1.136-0.232c0.309-0.154,0.565-0.367,0.768-0.64   c0.202-0.272,0.349-0.6,0.44-0.983c0.09-0.385,0.136-0.806,0.136-1.264v-0.545H183.5c-0.235,0.512-0.59,0.889-1.064,1.129   c-0.475,0.239-0.979,0.359-1.512,0.359c-0.619,0-1.158-0.112-1.616-0.336c-0.458-0.225-0.842-0.525-1.152-0.904   s-0.542-0.821-0.696-1.328c-0.155-0.506-0.232-1.042-0.232-1.607c0-0.49,0.064-0.994,0.192-1.512s0.341-0.987,0.64-1.408   c0.298-0.422,0.693-0.769,1.184-1.041c0.491-0.271,1.093-0.407,1.808-0.407c0.522,0,1.002,0.114,1.44,0.344   s0.779,0.573,1.024,1.032h0.016v-1.184h1.28v7.567C184.812,194.65,184.502,195.664,183.884,196.336z M182.148,192.616   c0.314-0.187,0.568-0.433,0.76-0.736c0.192-0.304,0.333-0.647,0.424-1.032c0.09-0.384,0.136-0.768,0.136-1.152   c0-0.361-0.042-0.719-0.128-1.071s-0.222-0.669-0.408-0.952c-0.187-0.282-0.429-0.51-0.728-0.68   c-0.298-0.171-0.661-0.256-1.088-0.256c-0.438,0-0.811,0.082-1.12,0.248c-0.31,0.165-0.563,0.387-0.76,0.664   s-0.341,0.598-0.432,0.959c-0.091,0.363-0.136,0.742-0.136,1.137c0,0.373,0.037,0.746,0.112,1.119   c0.075,0.374,0.203,0.713,0.384,1.017c0.181,0.304,0.421,0.55,0.72,0.736c0.298,0.187,0.672,0.28,1.12,0.28   C181.452,192.896,181.833,192.803,182.148,192.616z"/>
	<path fill="#999999" d="M193.068,196.336c-0.619,0.672-1.589,1.008-2.912,1.008c-0.384,0-0.776-0.043-1.176-0.128   s-0.763-0.224-1.088-0.416c-0.326-0.192-0.595-0.442-0.808-0.752s-0.331-0.688-0.352-1.136h1.36   c0.011,0.245,0.088,0.453,0.232,0.624c0.144,0.171,0.32,0.31,0.528,0.416s0.435,0.185,0.68,0.231   c0.246,0.049,0.48,0.072,0.704,0.072c0.448,0,0.827-0.077,1.136-0.232c0.309-0.154,0.565-0.367,0.768-0.64   c0.202-0.272,0.349-0.6,0.44-0.983c0.09-0.385,0.136-0.806,0.136-1.264v-0.545h-0.032c-0.235,0.512-0.59,0.889-1.064,1.129   c-0.475,0.239-0.979,0.359-1.512,0.359c-0.619,0-1.158-0.112-1.616-0.336c-0.458-0.225-0.842-0.525-1.152-0.904   s-0.542-0.821-0.696-1.328c-0.155-0.506-0.232-1.042-0.232-1.607c0-0.49,0.064-0.994,0.192-1.512s0.341-0.987,0.64-1.408   c0.298-0.422,0.693-0.769,1.184-1.041c0.491-0.271,1.093-0.407,1.808-0.407c0.522,0,1.002,0.114,1.44,0.344   s0.779,0.573,1.024,1.032h0.016v-1.184h1.28v7.567C193.996,194.65,193.687,195.664,193.068,196.336z M191.332,192.616   c0.314-0.187,0.568-0.433,0.76-0.736c0.192-0.304,0.333-0.647,0.424-1.032c0.09-0.384,0.136-0.768,0.136-1.152   c0-0.361-0.042-0.719-0.128-1.071s-0.222-0.669-0.408-0.952c-0.187-0.282-0.429-0.51-0.728-0.68   c-0.298-0.171-0.661-0.256-1.088-0.256c-0.438,0-0.811,0.082-1.12,0.248c-0.31,0.165-0.563,0.387-0.76,0.664   s-0.341,0.598-0.432,0.959c-0.091,0.363-0.136,0.742-0.136,1.137c0,0.373,0.037,0.746,0.112,1.119   c0.075,0.374,0.203,0.713,0.384,1.017c0.181,0.304,0.421,0.55,0.72,0.736c0.298,0.187,0.672,0.28,1.12,0.28   C190.636,192.896,191.017,192.803,191.332,192.616z"/>
	<path fill="#999999" d="M201.9,193.473c-0.619,0.469-1.397,0.703-2.336,0.703c-0.662,0-1.235-0.106-1.72-0.32   c-0.486-0.213-0.894-0.512-1.224-0.896c-0.331-0.384-0.579-0.843-0.744-1.376s-0.259-1.114-0.28-1.744   c0-0.629,0.096-1.205,0.288-1.729c0.192-0.521,0.461-0.975,0.808-1.359c0.347-0.384,0.757-0.683,1.232-0.896   c0.475-0.213,0.995-0.319,1.56-0.319c0.736,0,1.347,0.151,1.832,0.456c0.485,0.304,0.875,0.69,1.168,1.16   c0.293,0.469,0.496,0.98,0.608,1.535c0.111,0.555,0.157,1.083,0.136,1.584h-6.192c-0.011,0.363,0.032,0.707,0.128,1.033   c0.096,0.324,0.25,0.613,0.464,0.863c0.213,0.251,0.485,0.451,0.816,0.6c0.331,0.15,0.72,0.225,1.168,0.225   c0.576,0,1.048-0.133,1.416-0.4c0.368-0.266,0.61-0.672,0.728-1.216h1.345C202.918,192.305,202.518,193.003,201.9,193.473z    M201.572,188.16c-0.123-0.288-0.287-0.536-0.496-0.744c-0.208-0.208-0.453-0.373-0.736-0.496s-0.595-0.184-0.936-0.184   c-0.352,0-0.669,0.061-0.952,0.184c-0.283,0.123-0.525,0.291-0.728,0.504c-0.203,0.214-0.363,0.462-0.48,0.744   c-0.118,0.283-0.187,0.584-0.208,0.904h4.752C201.767,188.752,201.695,188.448,201.572,188.16z"/>
	<path fill="#999999" d="M205.868,185.729v1.744h0.032c0.33-0.673,0.736-1.168,1.216-1.488c0.48-0.32,1.088-0.47,1.824-0.448v1.44   c-0.544,0-1.008,0.074-1.393,0.224c-0.384,0.149-0.693,0.368-0.928,0.655c-0.234,0.289-0.405,0.639-0.512,1.049   s-0.16,0.883-0.16,1.416V194h-1.36v-8.271H205.868z"/>
</g>
<g>
	<path fill="#999999" d="M602.032,182.576L606.496,194h-1.68l-1.248-3.439h-4.832l-1.28,3.439h-1.552l4.447-11.424H602.032z    M603.088,189.279l-1.904-5.327h-0.031l-1.937,5.327H603.088z"/>
	<path fill="#999999" d="M612.336,187.168c-0.342-0.288-0.801-0.432-1.377-0.432c-0.49,0-0.9,0.09-1.231,0.271   s-0.595,0.422-0.792,0.721s-0.338,0.643-0.424,1.031c-0.086,0.39-0.128,0.792-0.128,1.208c0,0.384,0.045,0.758,0.136,1.12   c0.091,0.363,0.232,0.686,0.424,0.969c0.192,0.282,0.443,0.509,0.752,0.68c0.31,0.17,0.678,0.256,1.104,0.256   c0.672,0,1.197-0.176,1.575-0.528c0.379-0.353,0.611-0.848,0.697-1.487h1.392c-0.149,1.023-0.53,1.812-1.144,2.367   c-0.614,0.555-1.449,0.832-2.504,0.832c-0.631,0-1.188-0.102-1.673-0.304s-0.891-0.491-1.216-0.864   c-0.326-0.373-0.57-0.818-0.736-1.336c-0.165-0.518-0.248-1.085-0.248-1.704c0-0.618,0.08-1.197,0.24-1.735   c0.16-0.539,0.402-1.008,0.729-1.408c0.324-0.4,0.732-0.715,1.224-0.944c0.49-0.229,1.062-0.344,1.712-0.344   c0.469,0,0.909,0.056,1.32,0.168c0.41,0.112,0.773,0.285,1.088,0.521c0.314,0.234,0.573,0.53,0.775,0.887   c0.203,0.358,0.331,0.782,0.385,1.272h-1.408C612.9,187.861,612.677,187.456,612.336,187.168z"/>
	<path fill="#999999" d="M619.52,185.729v1.199h-1.648v5.137c0,0.16,0.014,0.287,0.041,0.384c0.025,0.096,0.076,0.171,0.151,0.224   c0.075,0.054,0.179,0.088,0.312,0.104c0.134,0.017,0.307,0.024,0.521,0.024h0.624v1.2h-1.04c-0.353,0-0.653-0.023-0.903-0.072   c-0.252-0.048-0.454-0.136-0.609-0.264c-0.154-0.128-0.27-0.309-0.344-0.544c-0.074-0.234-0.111-0.544-0.111-0.929v-5.264h-1.408   v-1.199h1.408v-2.48h1.359v2.48H619.52z"/>
	<path fill="#999999" d="M621.104,184.24v-1.664h1.359v1.664H621.104z M622.463,185.729V194h-1.359v-8.271H622.463z"/>
	<path fill="#999999" d="M624.383,188.168c0.171-0.527,0.427-0.986,0.769-1.376c0.341-0.39,0.763-0.696,1.264-0.92   s1.077-0.336,1.728-0.336c0.662,0,1.24,0.112,1.736,0.336s0.915,0.53,1.256,0.92c0.342,0.39,0.598,0.849,0.769,1.376   s0.256,1.096,0.256,1.704s-0.085,1.173-0.256,1.696c-0.171,0.522-0.427,0.979-0.769,1.367c-0.341,0.391-0.76,0.693-1.256,0.912   s-1.074,0.328-1.736,0.328c-0.65,0-1.227-0.109-1.728-0.328s-0.923-0.521-1.264-0.912c-0.342-0.389-0.598-0.845-0.769-1.367   c-0.17-0.523-0.256-1.088-0.256-1.696S624.213,188.695,624.383,188.168z M625.768,191.208c0.133,0.39,0.316,0.715,0.552,0.976   c0.234,0.262,0.509,0.462,0.823,0.601c0.315,0.139,0.648,0.208,1,0.208c0.353,0,0.686-0.069,1-0.208   c0.315-0.139,0.59-0.339,0.824-0.601c0.234-0.261,0.419-0.586,0.553-0.976c0.133-0.39,0.199-0.835,0.199-1.336   s-0.066-0.946-0.199-1.336c-0.134-0.39-0.318-0.718-0.553-0.984s-0.509-0.47-0.824-0.608c-0.314-0.138-0.647-0.207-1-0.207   c-0.352,0-0.685,0.069-1,0.207c-0.314,0.139-0.589,0.342-0.823,0.608c-0.235,0.267-0.419,0.595-0.552,0.984   c-0.134,0.39-0.2,0.835-0.2,1.336S625.634,190.818,625.768,191.208z"/>
	<path fill="#999999" d="M635.039,185.729v1.312h0.031c0.566-1.003,1.462-1.504,2.689-1.504c0.543,0,0.996,0.075,1.359,0.224   c0.361,0.15,0.656,0.357,0.879,0.624c0.225,0.267,0.383,0.584,0.473,0.952s0.137,0.775,0.137,1.225V194h-1.361v-5.6   c0-0.512-0.148-0.918-0.447-1.217c-0.299-0.298-0.709-0.447-1.232-0.447c-0.416,0-0.775,0.063-1.08,0.191   c-0.303,0.129-0.557,0.31-0.76,0.545c-0.203,0.234-0.354,0.509-0.455,0.823c-0.102,0.315-0.152,0.659-0.152,1.032V194h-1.36v-8.271   H635.039z"/>
</g>
</svg>